P2
8 3
255
0 0 0 0 0 0 0 0 127 127 127 127 127 127 127 127 255 255 255 255 255 255 255 255 